<?xml version="1.0" encoding="utf-8"?>
<!-- Generator: Adobe Illustrator 25.0.0, SVG Export Plug-In . SVG Version: 6.00 Build 0)  -->
<svg version="1.1" id="圖層_1" xmlns="http://www.w3.org/2000/svg" xmlns:xlink="http://www.w3.org/1999/xlink" x="0px" y="0px"
	 viewBox="0 0 220.5 50" style="enable-background:new 0 0 220.5 50;" xml:space="preserve">
<style type="text/css">
	.st0{fill:#FFFFFF;}
	.st1{fill:#002E6C;}
	.st2{fill:#0059A3;}
	.st3{fill:#1398AF;}
</style>
<g>
	<g>
		<path id="Path_1_1_" class="st0" d="M77.6,35.1l-2.1,3.8l-2.1-3.8h-0.8v5.8h0.9v-3.8l1.7,3.1h0.4l1.7-3.2l0,3.8h0.9l0-5.8H77.6z"
			/>
		<path id="Path_2_1_" class="st0" d="M81.4,36.4c-0.3,0-0.6,0-0.9,0.1c-0.3,0.1-0.5,0.2-0.8,0.4l0.4,0.7c0.2-0.1,0.3-0.3,0.6-0.3
			c0.2-0.1,0.4-0.1,0.7-0.1c0.3,0,0.5,0.1,0.7,0.2c0.2,0.2,0.3,0.4,0.3,0.7v0.1h-1c-0.5,0-0.9,0.1-1.3,0.4c-0.3,0.2-0.4,0.6-0.4,1
			c0,0.2,0.1,0.5,0.2,0.7c0.1,0.2,0.3,0.4,0.5,0.5c0.5,0.2,1.1,0.2,1.6,0c0.2-0.1,0.4-0.2,0.5-0.4v0.5h0.9v-2.6c0-0.5-0.1-1-0.5-1.4
			C82.4,36.5,81.9,36.3,81.4,36.4 M82.3,39.5c-0.1,0.2-0.2,0.4-0.4,0.5c-0.2,0.1-0.4,0.2-0.6,0.2c-0.2,0-0.4,0-0.6-0.2
			c-0.1-0.1-0.2-0.3-0.2-0.4c0-0.4,0.3-0.6,0.8-0.6h1L82.3,39.5z"/>
		<path id="Path_3_1_" class="st0" d="M85.5,37.1v-0.6h-0.9v4.4h0.9v-2.1c0-0.4,0.1-0.7,0.3-1c0.2-0.2,0.5-0.4,0.9-0.4
			c0.1,0,0.1,0,0.2,0v-1C86.4,36.3,85.8,36.6,85.5,37.1"/>
		<path id="Path_4_1_" class="st0" d="M88.4,34.5c-0.2,0-0.3,0.1-0.4,0.2c-0.2,0.2-0.2,0.6,0,0.9c0.1,0.1,0.3,0.2,0.4,0.2
			c0.2,0,0.3-0.1,0.4-0.2c0.1-0.1,0.2-0.3,0.2-0.5c0-0.2-0.1-0.3-0.2-0.4C88.7,34.5,88.6,34.5,88.4,34.5"/>
		<rect id="Rectangle_1_1_" x="88" y="36.4" class="st0" width="0.9" height="4.4"/>
		<path id="Path_5_1_" class="st0" d="M91.9,40c-0.2,0-0.3-0.1-0.4-0.2c-0.1-0.1-0.2-0.3-0.1-0.5v-2.1h1.1v-0.8h-1.1v-1h-0.9v1h-0.7
			v0.8h0.7v2.1c0,0.4,0.1,0.8,0.4,1.1c0.3,0.3,0.6,0.4,1,0.4c0.2,0,0.3,0,0.5-0.1c0.1,0,0.3-0.1,0.4-0.2l-0.3-0.7
			C92.3,40,92.1,40,91.9,40"/>
		<path id="Path_6_1_" class="st0" d="M94.2,34.5c-0.2,0-0.3,0.1-0.4,0.2c-0.2,0.2-0.2,0.6,0,0.9c0.1,0.1,0.3,0.2,0.4,0.2
			c0.2,0,0.3-0.1,0.4-0.2c0.1-0.1,0.2-0.3,0.2-0.5c0-0.2-0.1-0.3-0.2-0.4C94.5,34.5,94.3,34.5,94.2,34.5"/>
		<rect id="Rectangle_2_1_" x="93.7" y="36.4" class="st0" width="0.9" height="4.4"/>
		<path id="Path_7_1_" class="st0" d="M101.1,36.4c-0.3,0-0.6,0.1-0.9,0.2c-0.3,0.1-0.5,0.3-0.6,0.5c-0.1-0.2-0.3-0.4-0.6-0.5
			c-0.2-0.1-0.5-0.2-0.8-0.2c-0.3,0-0.5,0.1-0.8,0.2c-0.2,0.1-0.4,0.3-0.6,0.5v-0.6h-0.9v4.4H97v-2.2c0-0.4,0.1-0.7,0.3-1
			c0.2-0.2,0.5-0.4,0.8-0.3c0.3,0,0.5,0.1,0.7,0.3c0.2,0.3,0.3,0.6,0.2,0.9v2.4h0.9v-2.2c0-0.4,0.1-0.7,0.3-1
			c0.2-0.2,0.5-0.4,0.8-0.3c0.3,0,0.5,0.1,0.7,0.3c0.2,0.3,0.3,0.6,0.2,0.9v2.4h0.9v-2.5c0-0.5-0.1-1-0.4-1.5
			C102,36.5,101.6,36.4,101.1,36.4"/>
		<path id="Path_8_1_" class="st0" d="M107,36.7c-0.3-0.2-0.7-0.3-1-0.3c-0.8,0-1.5,0.4-1.8,1.1c-0.2,0.4-0.3,0.8-0.3,1.2
			c0,0.4,0.1,0.8,0.3,1.2c0.2,0.3,0.4,0.6,0.8,0.8c0.7,0.3,1.4,0.4,2.1,0.1c0.3-0.1,0.5-0.3,0.7-0.5l-0.5-0.6
			c-0.3,0.3-0.7,0.5-1.1,0.5c-0.3,0-0.6-0.1-0.9-0.3c-0.2-0.2-0.4-0.5-0.4-0.8h3.2c0-0.1,0-0.2,0-0.3c0-0.4-0.1-0.8-0.3-1.2
			C107.6,37.1,107.3,36.9,107,36.7 M104.8,38.3c0-0.3,0.2-0.6,0.4-0.8c0.4-0.4,1.1-0.4,1.5,0c0.2,0.2,0.3,0.5,0.4,0.8L104.8,38.3z"
			/>
		<path id="Path_9_1_" class="st0" d="M112.9,36.4c-0.3,0-0.6,0-0.9,0.1c-0.3,0.1-0.5,0.2-0.8,0.4l0.4,0.8c0.2-0.1,0.3-0.3,0.6-0.3
			c0.2-0.1,0.4-0.1,0.7-0.1c0.3,0,0.5,0.1,0.7,0.2c0.2,0.2,0.3,0.4,0.3,0.7v0.1h-1c-0.5,0-0.9,0.1-1.3,0.4c-0.3,0.2-0.4,0.6-0.4,1
			c0,0.2,0.1,0.5,0.2,0.7c0.1,0.2,0.3,0.4,0.5,0.5c0.2,0.1,0.5,0.2,0.8,0.2c0.3,0,0.5,0,0.8-0.2c0.2-0.1,0.4-0.2,0.5-0.4v0.5h0.9
			v-2.6c0-0.5-0.1-1-0.5-1.4C113.9,36.5,113.4,36.3,112.9,36.4 M113.8,39.5c-0.1,0.2-0.2,0.4-0.4,0.5c-0.2,0.1-0.4,0.2-0.6,0.2
			c-0.2,0-0.4,0-0.6-0.2c-0.1-0.1-0.2-0.3-0.2-0.4c0-0.4,0.3-0.6,0.8-0.6h1L113.8,39.5z"/>
		<path id="Path_10_1_" class="st0" d="M118.4,36.4c-0.3,0-0.5,0-0.8,0.2c-0.2,0.1-0.4,0.3-0.6,0.5v-0.6h-0.9v4.4h0.9v-2.2
			c0-0.4,0.1-0.7,0.3-1c0.2-0.2,0.5-0.4,0.8-0.3c0.3,0,0.5,0.1,0.7,0.3c0.2,0.3,0.3,0.6,0.2,0.9v2.4h0.9v-2.5c0-0.5-0.1-1-0.5-1.4
			C119.3,36.5,118.8,36.4,118.4,36.4"/>
		<path id="Path_11_1_" class="st0" d="M124.5,37c-0.1-0.2-0.3-0.3-0.6-0.4c-0.2-0.1-0.5-0.2-0.7-0.1c-0.4,0-0.7,0.1-1,0.3
			c-0.3,0.2-0.6,0.5-0.7,0.8c-0.2,0.4-0.3,0.8-0.3,1.2c0,0.4,0.1,0.8,0.3,1.2c0.2,0.3,0.4,0.6,0.7,0.8c0.3,0.2,0.7,0.3,1,0.3
			c0.3,0,0.5-0.1,0.8-0.2c0.2-0.1,0.4-0.3,0.6-0.5v0.6h0.9v-6.1h-0.9L124.5,37z M124.3,39.4c-0.1,0.2-0.2,0.4-0.4,0.5
			c-0.4,0.2-0.8,0.2-1.2,0c-0.2-0.1-0.3-0.3-0.4-0.5c-0.2-0.5-0.2-1,0-1.5c0.1-0.2,0.2-0.4,0.4-0.5c0.4-0.2,0.8-0.2,1.2,0
			c0.2,0.1,0.3,0.3,0.4,0.5C124.5,38.4,124.5,38.9,124.3,39.4"/>
		<path id="Path_12_1_" class="st0" d="M132.6,35.3c-0.4-0.2-0.8-0.3-1.2-0.2h-2.2v5.8h1v-1.7h1.2c0.4,0,0.8-0.1,1.2-0.2
			c0.3-0.2,0.6-0.4,0.8-0.7c0.4-0.7,0.4-1.5,0-2.2C133.2,35.7,132.9,35.5,132.6,35.3 M132.3,38c-0.3,0.2-0.6,0.3-1,0.3h-1.1V36h1.1
			c0.3,0,0.7,0.1,1,0.3C132.7,36.7,132.7,37.5,132.3,38"/>
		<path id="Path_13_1_" class="st0" d="M137.6,36.7c-0.7-0.4-1.5-0.4-2.2,0c-0.3,0.2-0.6,0.5-0.8,0.8c-0.4,0.7-0.4,1.6,0,2.3
			c0.2,0.3,0.4,0.6,0.8,0.8c0.7,0.4,1.5,0.4,2.2,0c0.3-0.2,0.6-0.5,0.8-0.8c0.4-0.7,0.4-1.6,0-2.3C138.2,37.1,137.9,36.9,137.6,36.7
			 M137.3,39.6c-0.2,0.2-0.5,0.4-0.9,0.4c-0.3,0-0.6-0.1-0.9-0.4c-0.4-0.6-0.4-1.4,0-2c0.2-0.2,0.5-0.4,0.9-0.4
			c0.3,0,0.6,0.1,0.9,0.4C137.8,38.2,137.8,39,137.3,39.6"/>
		<path id="Path_14_1_" class="st0" d="M140.6,37.1v-0.6h-0.9v4.4h0.9v-2.1c0-0.4,0.1-0.7,0.3-1c0.2-0.2,0.5-0.4,0.9-0.4
			c0.1,0,0.1,0,0.2,0v-1C141.5,36.3,140.9,36.6,140.6,37.1"/>
		<path id="Path_15_1_" class="st0" d="M144.8,40c-0.2,0-0.3-0.1-0.4-0.2c-0.1-0.1-0.2-0.3-0.1-0.5v-2.1h1.1v-0.8h-1.1v-1h-0.9v1
			h-0.7v0.8h0.7v2.1c0,0.4,0.1,0.8,0.4,1.1c0.3,0.3,0.6,0.4,1,0.4c0.2,0,0.3,0,0.5-0.1c0.1,0,0.3-0.1,0.4-0.2l-0.3-0.7
			C145.2,40,145,40.1,144.8,40"/>
		<path id="Path_16_1_" class="st0" d="M152.6,37.8c0.2-0.1,0.4-0.3,0.5-0.5c0.1-0.2,0.2-0.5,0.2-0.8c0-0.4-0.2-0.8-0.5-1.1
			c-0.4-0.3-0.9-0.4-1.4-0.4h-2.5v5.8h2.6c0.5,0,1.1-0.1,1.5-0.4c0.4-0.3,0.6-0.7,0.5-1.2c0-0.3-0.1-0.6-0.3-0.9
			C153.2,38.1,152.9,37.9,152.6,37.8 M149.9,35.9h1.4c0.3,0,0.6,0.1,0.8,0.2c0.2,0.1,0.3,0.4,0.3,0.6c0,0.2-0.1,0.5-0.3,0.6
			c-0.2,0.1-0.5,0.2-0.8,0.2h-1.4V35.9z M151.5,40h-1.6v-1.7h1.6c0.8,0,1.1,0.3,1.1,0.8S152.2,40,151.5,40"/>
		<path id="Path_17_1_" class="st0" d="M157.7,38.7c0,0.4-0.1,0.7-0.3,1c-0.2,0.2-0.5,0.4-0.8,0.3c-0.3,0-0.5-0.1-0.7-0.3
			c-0.2-0.3-0.3-0.6-0.2-0.9v-2.4h-0.9v2.5c0,0.5,0.1,1.1,0.5,1.5c0.5,0.5,1.3,0.6,2,0.3c0.2-0.1,0.4-0.3,0.6-0.5v0.6h0.9v-4.4h-0.9
			L157.7,38.7z"/>
		<path id="Path_18_1_" class="st0" d="M160.9,37.1v-0.6H160v4.4h0.9v-2.1c0-0.4,0.1-0.7,0.3-1c0.2-0.2,0.5-0.4,0.9-0.4
			c0.1,0,0.1,0,0.2,0v-1C161.8,36.3,161.2,36.6,160.9,37.1"/>
		<path id="Path_19_1_" class="st0" d="M166.1,36.7c-0.3-0.2-0.7-0.3-1-0.3c-0.8,0-1.5,0.4-1.8,1.1c-0.2,0.4-0.3,0.8-0.3,1.2
			c0,0.4,0.1,0.8,0.3,1.2c0.2,0.3,0.4,0.6,0.8,0.8c0.7,0.3,1.4,0.4,2.1,0.1c0.3-0.1,0.5-0.3,0.7-0.5l-0.5-0.6
			c-0.3,0.3-0.7,0.5-1.1,0.5c-0.3,0-0.6-0.1-0.9-0.3c-0.2-0.2-0.4-0.5-0.4-0.8h3.2c0-0.1,0-0.2,0-0.3c0-0.4-0.1-0.8-0.3-1.2
			C166.7,37.1,166.4,36.9,166.1,36.7 M163.9,38.3c0-0.3,0.2-0.6,0.4-0.8c0.4-0.4,1.1-0.4,1.5,0c0.2,0.2,0.3,0.5,0.4,0.8L163.9,38.3z
			"/>
		<path id="Path_20_1_" class="st0" d="M169.6,36.4c-0.3,0-0.6,0-0.9,0.1c-0.3,0.1-0.5,0.2-0.8,0.4l0.4,0.8c0.2-0.1,0.3-0.3,0.6-0.3
			c0.2-0.1,0.4-0.1,0.7-0.1c0.3,0,0.5,0.1,0.7,0.2c0.2,0.2,0.3,0.4,0.3,0.7v0.1h-1c-0.5,0-0.9,0.1-1.3,0.4c-0.3,0.2-0.4,0.6-0.4,1
			c0,0.2,0.1,0.5,0.2,0.7c0.1,0.2,0.3,0.4,0.5,0.5c0.2,0.1,0.5,0.2,0.8,0.2c0.3,0,0.5,0,0.8-0.2c0.2-0.1,0.4-0.2,0.5-0.4v0.5h0.9
			v-2.6c0-0.5-0.1-1-0.5-1.4C170.6,36.5,170.1,36.3,169.6,36.4 M170.5,39.5c-0.1,0.2-0.2,0.4-0.4,0.5c-0.2,0.1-0.4,0.2-0.6,0.2
			c-0.2,0-0.4,0-0.6-0.2c-0.1-0.1-0.2-0.3-0.2-0.4c0-0.4,0.3-0.6,0.8-0.6h1L170.5,39.5z"/>
		<path id="Path_21_1_" class="st0" d="M175.8,38.7c0,0.4-0.1,0.7-0.3,1c-0.2,0.2-0.5,0.4-0.8,0.3c-0.3,0-0.5-0.1-0.7-0.3
			c-0.2-0.3-0.3-0.6-0.2-0.9v-2.4h-0.9v2.5c0,0.5,0.1,1.1,0.5,1.5c0.5,0.5,1.3,0.6,2,0.3c0.2-0.1,0.4-0.3,0.6-0.5v0.6h0.9v-4.4h-0.9
			L175.8,38.7z"/>
		<path id="Path_22_1_" class="st0" d="M178.5,39.5c-0.2,0-0.3,0.1-0.4,0.2c-0.1,0.1-0.2,0.3-0.2,0.5c0,0.1,0,0.3,0.1,0.4
			c0.1,0.1,0.2,0.2,0.3,0.2l-0.3,1.3h0.6l0.4-1.2c0.1-0.1,0.1-0.3,0.1-0.4c0-0.1,0-0.2,0-0.3c0-0.2-0.1-0.4-0.2-0.5
			C178.8,39.6,178.6,39.5,178.5,39.5"/>
		<path id="Path_23_1_" class="st0" d="M187.5,35.1l-2.1,3.8l-2.1-3.8h-0.8v5.8h0.9v-3.8l1.7,3.1h0.4l1.7-3.2l0,3.8h0.9l0-5.8H187.5
			z"/>
		<path id="Path_24_1_" class="st0" d="M193.8,35.4c-0.9-0.5-2-0.5-2.9,0c-0.4,0.3-0.8,0.6-1,1.1c-0.5,1-0.5,2.1,0,3
			c0.2,0.4,0.6,0.8,1,1.1c0.9,0.5,2,0.5,2.9,0c0.4-0.3,0.8-0.6,1-1.1c0.5-1,0.5-2.1,0-3.1C194.6,36,194.2,35.6,193.8,35.4 M194,39
			c-0.1,0.3-0.4,0.6-0.7,0.7c-0.6,0.3-1.3,0.3-1.9,0c-0.3-0.2-0.5-0.4-0.7-0.7c-0.3-0.7-0.3-1.4,0-2.1c0.1-0.3,0.4-0.6,0.7-0.7
			c0.6-0.3,1.3-0.3,1.9,0c0.3,0.2,0.5,0.4,0.7,0.7C194.3,37.6,194.3,38.3,194,39"/>
		<path id="Path_25_1_" class="st0" d="M195.7,36h1.7v4.9h1V36h1.7v-0.9h-4.5L195.7,36z"/>
		<path id="Path_26_1_" class="st0" d="M202.5,36.2c0.3-0.2,0.6-0.3,1-0.3c0.5,0,1.1,0.2,1.4,0.7l0.6-0.7c-0.2-0.3-0.5-0.6-0.9-0.7
			c-0.8-0.4-1.8-0.3-2.6,0.1c-0.4,0.3-0.8,0.6-1,1.1c-0.5,1-0.5,2.1,0,3.1c0.2,0.4,0.6,0.8,1,1.1c0.4,0.3,0.9,0.4,1.4,0.4
			c0.4,0,0.8-0.1,1.2-0.2c0.4-0.2,0.7-0.4,0.9-0.7l-0.6-0.7c-0.3,0.4-0.9,0.7-1.4,0.7c-0.3,0-0.7-0.1-1-0.3
			c-0.3-0.2-0.5-0.4-0.7-0.7c-0.3-0.7-0.3-1.4,0-2.1C202,36.6,202.2,36.3,202.5,36.2"/>
		<path id="Path_27_1_" class="st0" d="M168.3,22.2L168.3,22.2L168.3,22.2L168.3,22.2z"/>
		<path id="Path_28_1_" class="st0" d="M166.6,22.2c-0.3,3.2-1.2,5.4-2.7,6.6v2.3c1.4-0.8,2.5-2.1,3.2-3.6c0.7-1.7,1.1-3.5,1.2-5.4
			L166.6,22.2z"/>
		<path id="Path_29_1_" class="st0" d="M91.5,13.3h-8.8v-1.6h-1.9v1.6H72v2h19.6V13.3z"/>
		<path id="Path_30_1_" class="st0" d="M129.4,19h-2.6l1-3.9h1.3v-1.8h-4.4v-1.7h-1.9v1.7h-4.4v1.8h1.3l0.8,3.9h-2.4v1.8h11.2V19z
			 M121.6,15.1h4.4l-0.9,3.9h-2.6L121.6,15.1z"/>
		<path id="Path_31_1_" class="st0" d="M121,22.8h-1.8V31h9.2v-8.2H121L121,22.8z M126.7,29.2H121v-4.6h5.6V29.2z"/>
		<path id="Path_32_1_" class="st0" d="M132.1,14.5h3.7l-2.1,6.1c1.3,1.2,2.2,2.9,2.5,4.6c0.1,0.6-0.1,1.2-0.5,1.7
			c-0.3,0.3-0.8,0.5-1.2,0.6c-0.5,0.1-1.4,0-1.4,0s0,1.3,0,1.8c2,0,3.1-0.3,3.8-0.9c0.8-0.8,1.2-1.9,1.1-3.1c-0.2-1.8-1-3.6-2.4-4.8
			l2.1-6c0,0,0,0,0-0.1h0v-1.8h-7.3V31h1.8L132.1,14.5z"/>
		<path id="Path_33_1_" class="st0" d="M146.4,16.2H145l0.5,3.2h1.5L146.4,16.2z"/>
		<path id="Path_34_1_" class="st0" d="M147,27.2l-0.6-3.7h-1.5l0.6,3.7H147z"/>
		<path id="Path_35_1_" class="st0" d="M160.4,13.7h-4.2v-2.1h-1.9v2.1h-3.9v1.8h10L160.4,13.7z"/>
		<path id="Path_36_1_" class="st0" d="M149.6,22.4h0.7v-1.8h-0.7v-7.1h-2.7v-1.8H145v1.8h-2.7v7.1h-1v1.8h1v1c0,0.2,0,0.4,0,0.6
			c0,0.6,0,1.1,0,1.5c0,1.1-0.4,2.2-1,3.1v2.5c1.5-0.9,2.6-2.6,2.8-5.3c0-0.6,0-1.9,0-2.5v-1h3.7v6c0,0.4-0.3,0.7-0.6,0.7h-1.9v1.9
			h2c1.4-0.1,2.5-1.2,2.4-2.6L149.6,22.4z M144.1,15.1h3.7v5.4h-3.7L144.1,15.1z"/>
		<path id="Path_37_1_" class="st0" d="M168.1,14.1l-4.2-2.1V14l4.2,2.1V14.1z"/>
		<path id="Path_38_1_" class="st0" d="M168.1,18.6l-4.2-2.1v2.1l4.2,2.1V18.6z"/>
		<path id="Path_39_1_" class="st0" d="M201.5,27.3v-4.2h-9.8v5h9.8V27.3z M193.5,24.5h6.1v2.1h-6.1V24.5z"/>
		<path id="Path_40_1_" class="st0" d="M183.5,29.1l-1.6-0.9c-0.1,0.3-0.3,0.5-0.5,0.7c-0.3,0.2-0.7,0.3-1.1,0.2c-2.3,0-7,0-7.1,0
			c-0.4,0-0.5-0.1-0.5-0.5V27h8v-3.7c0.8,0.8,1.7,1.5,2.7,2v-2.2c-1.4-0.9-2.6-2.2-3.2-3.8h3.2v-1.7H180v-2.3h3.1v-1.7H180v-1.9
			h-1.8v1.9h-3.9v-1.9h-1.8v1.9h-3.1v1.7h3.1v2.4h-3.3v1.7h3.4c-0.7,1.7-1.9,3.1-3.4,4v2.1c0.7-0.3,1.3-0.7,1.9-1.2v5.2
			c-0.1,0.7,0.4,1.4,1.1,1.5c0.1,0,0.3,0,0.4,0h8.2C182,31,183.1,30.2,183.5,29.1 M172.7,25.3v-2.2h6.2v2.2H172.7z M174.2,15.2h3.9
			v2.3h-3.9L174.2,15.2z M178.2,19.3c0.3,0.7,0.6,1.5,1,2.1h-5.8c0.4-0.7,0.7-1.4,0.9-2.1H178.2z"/>
		<path id="Path_41_1_" class="st0" d="M160.7,28.7c-0.5,0.2-1.1,0.3-1.7,0.4c-0.1,0-0.1,0-0.2,0c-0.1,0-0.3-0.2-0.2-0.3V17.4H158
			l0,0h-5.8v2.4c0,1.6,0,3.4,0,4c0,1.1,0,2.1-0.1,3.2c-0.1,0.9-0.6,1.6-1.4,2v2.1c1.3-0.5,2.3-1.4,2.8-2.6c0.3-0.9,0.5-1.9,0.4-2.9
			c0-1.5,0-2.5,0-5.7l0,0v-0.6h2.9v9.9c-0.1,1,0.7,1.9,1.7,1.9c0,0,0,0,0,0c1,0.1,1.9-0.1,2.8-0.5L160.7,28.7z"/>
		<path id="Path_42_1_" class="st0" d="M99.4,13.8l-3.9-1.8V14l3.9,1.8L99.4,13.8z"/>
		<path id="Path_43_1_" class="st0" d="M99.4,17.4l-3.9-1.8v2.1l3.9,1.8L99.4,17.4z"/>
		<path id="Path_44_1_" class="st0" d="M99.4,26v-1.4v0v-4h-3.8v1.8h2v2.2c0.1,1.7-0.6,3.3-2,4.3v2.3l0.1,0c1.1-0.5,2-1.4,2.6-2.4
			c0.8,1.4,2.3,2.3,3.9,2.4H115v-2h-12.8C100.6,29,99.3,27.6,99.4,26"/>
		<path id="Path_45_1_" class="st0" d="M91.5,31.1L91.5,31.1l0.1-2.1h-0.1c-2.9-0.1-5.8-1.1-8.2-2.7c1.6-1.5,3-3.3,4-5.2
			c1.2,1.1,2.6,2,4.1,2.6l0.1,0v-2.2l0,0c-2.3-1.1-4.3-2.9-5.6-5.2h-2.2c0.6,1.2,1.3,2.3,2.1,3.3c-1,2.1-2.5,3.9-4.2,5.5
			c-1.8-1.6-3.2-3.4-4.3-5.6c0.8-1,1.5-2.1,2.1-3.2h-2.2c-1.3,2.2-3.2,4-5.5,5.1l0,0v2.2l0.1,0c1.5-0.6,2.9-1.5,4.1-2.6
			c1.1,2,2.4,3.8,4.1,5.3c-2.4,1.7-5.3,2.6-8.2,2.7h-0.1v2.1H72c3.5-0.1,6.9-1.3,9.8-3.5C84.6,29.7,88,30.9,91.5,31.1"/>
		<path id="Path_46_1_" class="st0" d="M205.9,19.7h-16.2v-1.5h14.9v-6.1h-16.8v12.2c0,2.6-0.6,3.4-1.4,4.1v2.7
			c1.1-0.6,2-1.6,2.6-2.7c0.5-1.3,0.8-2.7,0.7-4v-2.6h14.3V27c0,1.4-0.6,2.1-1.9,2.1c-0.6,0-2.5,0-2.5,0V31h2.6c2,0,3.7-1.5,3.7-3.5
			c0,0,0-0.1,0-0.1v-5.6l0,0L205.9,19.7z M202.8,14v2.4h-13.1V14L202.8,14z"/>
		<path id="Path_47_1_" class="st0" d="M103.1,24.5h3.6V28h1.8v-3.5h3.7v0.9c0,0.5-0.1,0.9-0.8,0.9H110V28h1.8
			c1.3-0.1,2.3-1.1,2.2-2.4v-9.1h-3.5l3.5-2.6v-1.7h-12.7v1.7h10.1l-3.3,2.6h-1.1l-1.8-1.7h-2.2l1.8,1.7h-3.6V28h1.8V24.5z
			 M112.2,22.8h-3.7v-1.5h3.7V22.8z M112.2,19.6h-3.7v-1.4h3.7V19.6z M103.1,18.2h3.6v1.4h-3.6V18.2z M103.1,21.4h3.6v1.5h-3.6V21.4
			z"/>
	</g>
	<path class="st0" d="M68.3,16.4c-0.3-0.7-1-1.1-1.8-0.9c-0.1,0-9.7,2.3-16.5-0.6c-1.2-0.5-2.6-1.3-4.1-2.1
		c-6.6-3.6-15.8-8.6-29.7-3.2c-0.5,0.2-0.8,0.6-0.9,1.1c-0.1,0.5,0.1,1,0.4,1.4l7.7,7.6c0.2,0.2,0.4,0.3,0.6,0.3
		c-1.9,0.8-3.8,1.9-5.8,3.3c-0.4,0.3-0.6,0.7-0.6,1.1c0,0.4,0.1,0.9,0.5,1.2l5.5,5.2c0.3,0.3,0.7,0.4,1,0.4c0.3,0,0.6-0.1,0.9-0.3
		c-0.1,0.2-0.2,0.4-0.2,0.7c0,0.4,0.2,0.8,0.5,1.1l11.1,10.6c0.3,0.3,0.7,0.4,1,0.4c0.3,0,0.7-0.1,0.9-0.3l19.9-16
		c0.5-0.4,0.7-1.1,0.4-1.7c1.6-0.8,3.2-1.8,5.1-3.2c0.6-0.5,0.8-1.3,0.4-2c-0.1-0.2-0.2-0.3-0.4-0.4c1-0.5,2-1.1,3.1-1.7l0.2-0.1
		C68.3,17.8,68.6,17,68.3,16.4z"/>
	<g>
		<path id="Path_48_2_" class="st1" d="M38.4,27.7c-4.2-0.2-8.4,1.2-11.6,3.9l11.1,10.6l19.9-16C48.5,31,47,27.9,38.4,27.7"/>
		<path id="Path_49_2_" class="st2" d="M39.3,24.8c9.9,1.2,14,4.1,24-3.5c-5.7,2.9-12.3,3.3-18.3,1.1c-9.1-3.3-17-4.4-25.9,2.2
			l5.5,5.2C27.6,27.3,32.5,23.9,39.3,24.8"/>
		<path id="Path_50_2_" class="st3" d="M39.7,17.6C56.3,23,57,22.5,66.9,16.9c0,0-10.1,2.5-17.5-0.7c-7-3-16.3-11.6-32.6-5.3
			l7.7,7.6C28.9,17,34.2,15.8,39.7,17.6"/>
	</g>
</g>
</svg>
